<svg width="26" height="26" viewBox="0 0 26 26" fill="none" xmlns="http://www.w3.org/2000/svg">
<g clip-path="url(#clip0_5843_22160)">
<path d="M12.869 25.031C19.5859 25.031 25.031 19.5859 25.031 12.869C25.031 6.15213 19.5859 0.707031 12.869 0.707031C6.15213 0.707031 0.707031 6.15213 0.707031 12.869C0.707031 19.5859 6.15213 25.031 12.869 25.031Z" fill="#2C374B"/>
<path fill-rule="evenodd" clip-rule="evenodd" d="M19.4566 8.56815C19.3385 8.45516 14.0896 5.39927 13.4835 5.09111C13.2165 4.95244 12.7234 4.91649 12.4409 5.01408C12.1122 5.12194 6.55512 8.36271 6.32913 8.57329C6.21615 8.68114 6.07747 8.8609 6.02098 8.9739C5.92339 9.17419 5.91826 9.31287 5.90285 13.0159L5.89258 16.8473L6.60134 17.2633C6.99167 17.4893 7.34092 17.6793 7.3666 17.6896C7.42309 17.7051 12.4666 9.67238 12.4666 9.56452C12.4666 9.48749 11.3264 9.50289 10.9207 9.58507C10.4995 9.67751 10.1297 9.86241 9.91916 10.0884C9.83185 10.1808 9.12822 11.2388 8.35784 12.4407C7.58744 13.6425 6.94031 14.644 6.91464 14.6697C6.88895 14.7005 6.86841 13.586 6.86841 12.0606V9.40018L7.01222 9.27178C7.25874 9.0458 12.7183 5.918 12.8621 5.918C13.0007 5.918 13.0778 5.9591 14.3412 6.6884C14.7675 6.93492 15.9076 7.59232 16.8835 8.147C17.8594 8.70683 18.7067 9.22042 18.7735 9.28719L18.8865 9.41559V14.9416L16.1761 10.7799C16.0526 10.5784 15.9237 10.3785 15.8542 10.2857L15.8445 10.2707L15.8433 10.2714C15.8238 10.2463 15.8104 10.2322 15.805 10.2322C15.7844 10.2373 15.6457 10.4633 15.0242 11.511C14.9472 11.6394 14.8343 11.8346 14.7778 11.9425L14.6699 12.1377L14.6709 12.1393L14.6681 12.141L14.746 12.2694L14.8034 12.3688C14.8217 12.4 14.8405 12.4292 14.859 12.4552L15.0387 12.751C15.0609 12.7997 15.0916 12.8548 15.127 12.908C15.2091 13.0313 15.317 13.2059 15.3684 13.2983C15.3814 13.3217 15.3953 13.3428 15.4094 13.361L17.631 17.0168L17.3663 17.1708C17.2157 17.2561 17.1437 17.2942 17.0981 17.2964L14.3193 12.9765L14.2487 12.8618L13.9971 13.2727L13.9781 13.3041L12.8931 15.0679L12.8902 15.0701L15.0605 18.4819C14.7846 18.6982 12.9509 19.9558 12.8323 19.9558C12.6988 19.9558 10.2992 18.3059 10.33 18.2494C10.341 18.2276 11.0811 16.9718 11.9801 15.4467L11.9814 15.4444C12.7691 14.108 13.6784 12.5654 14.3258 11.4648C15.0962 10.1603 15.4146 9.57994 15.3633 9.56452C15.3273 9.54911 14.8137 9.54398 14.2282 9.55425L13.1599 9.56966L10.6947 13.6322C9.78703 15.1312 8.96682 16.483 8.50525 17.2437L8.50419 17.2454C8.27693 17.6199 8.13679 17.8509 8.11644 17.8848L8.00345 18.0697L9.91402 19.1688C10.9669 19.7748 11.9684 20.3449 12.1482 20.4425C12.5231 20.6428 12.9546 20.7095 13.2575 20.6068C13.4579 20.5452 19.1023 17.2941 19.3848 17.0835C19.4721 17.0168 19.621 16.8165 19.7083 16.6367L19.8623 16.3183L19.852 12.7488L19.8367 9.17933L19.7134 8.93794C19.6467 8.8044 19.5286 8.63492 19.4566 8.56815ZM18.8821 15.0124L18.8865 15.0189V15.0095L18.8821 15.0124Z" fill="white"/>
<path d="M18.9896 15.0881L15.8071 10.207L14.6152 12.1199L17.6925 17.1983L19.0415 16.5498L18.9896 15.0881Z" fill="#24A2EE"/>
<path d="M17.4383 17.7512L14.256 12.8701L12.8867 15.0538L15.4411 19.1432L17.0743 18.48L17.4383 17.7512Z" fill="#24A2EE"/>
<path fill-rule="evenodd" clip-rule="evenodd" d="M6.92198 9.44478L12.8706 6.01769L18.8192 9.44478V16.2948L12.8706 19.7219L8.50375 17.2061L7.92196 18.1559L12.7071 20.9127C12.8083 20.971 12.9328 20.971 13.0341 20.9127L19.7685 17.0329C19.87 16.9743 19.9325 16.8662 19.9325 16.7491V8.99054C19.9325 8.87345 19.87 8.76525 19.7685 8.7068L13.0341 4.82693C12.9328 4.76863 12.8083 4.76863 12.7071 4.82693L5.97259 8.7068C5.87112 8.76525 5.80859 8.87345 5.80859 8.99054V16.7491C5.80859 16.8662 5.87112 16.9743 5.97259 17.0329L7.31867 17.8083L7.91833 16.8689L6.92198 16.2948V9.44478Z" fill="#98BCDC"/>
<path d="M15.4565 9.52051L13.1587 9.55319L7.91992 18.1598L9.76815 19.2298L15.4565 9.52051Z" fill="white"/>
<path d="M9.75146 10.305C10.2762 9.44658 11.7787 9.45012 12.4645 9.55919L7.3165 17.8067C7.14168 17.7061 6.70813 17.4568 6.37247 17.2644C5.92895 17.0102 5.85569 17.0034 5.80859 16.768V16.3116C6.90426 14.667 9.22674 11.1633 9.75146 10.305Z" fill="white"/>
</g>
<defs>
<clipPath id="clip0_5843_22160">
<rect width="25.7396" height="25.7396" fill="white"/>
</clipPath>
</defs>
</svg>
